<svg xmlns="http://www.w3.org/2000/svg" viewBox="0 0 1446 846"><defs><style>.cls-1{fill:#4285f4;}</style></defs><title>Asset 4</title><g id="Layer_2" data-name="Layer 2"><g id="Layer_4" data-name="Layer 4"><path class="cls-1" d="M6,3A3,3,0,1,1,3,0,3,3,0,0,1,6,3"/><path class="cls-1" d="M6,63a3,3,0,1,1-3-3,3,3,0,0,1,3,3"/><path class="cls-1" d="M6,122.92a3,3,0,1,1-3-3,3,3,0,0,1,3,3"/><path class="cls-1" d="M6,183a3,3,0,1,1-3-3,3,3,0,0,1,3,3"/><path class="cls-1" d="M6,243a3,3,0,1,1-3-3,3,3,0,0,1,3,3"/><path class="cls-1" d="M6,303a3,3,0,1,1-3-3,3,3,0,0,1,3,3"/><path class="cls-1" d="M6,363a3,3,0,1,1-3-3,3,3,0,0,1,3,3"/><path class="cls-1" d="M6,423a3,3,0,1,1-3-3,3,3,0,0,1,3,3"/><path class="cls-1" d="M6,483a3,3,0,1,1-3-3,3,3,0,0,1,3,3"/><path class="cls-1" d="M6,543a3,3,0,1,1-3-3,3,3,0,0,1,3,3"/><path class="cls-1" d="M6,603a3,3,0,1,1-3-3,3,3,0,0,1,3,3"/><path class="cls-1" d="M6,663a3,3,0,1,1-3-3,3,3,0,0,1,3,3"/><path class="cls-1" d="M6,723a3,3,0,1,1-3-3,3,3,0,0,1,3,3"/><path class="cls-1" d="M6,783a3,3,0,1,1-3-3,3,3,0,0,1,3,3"/><path class="cls-1" d="M6,843a3,3,0,1,1-3-3,3,3,0,0,1,3,3"/><path class="cls-1" d="M66,3a3,3,0,1,1-3-3,3,3,0,0,1,3,3"/><path class="cls-1" d="M66,63a3,3,0,1,1-3-3,3,3,0,0,1,3,3"/><path class="cls-1" d="M66,122.92a3,3,0,1,1-3-3,3,3,0,0,1,3,3"/><path class="cls-1" d="M66,183a3,3,0,1,1-3-3,3,3,0,0,1,3,3"/><path class="cls-1" d="M66,243a3,3,0,1,1-3-3,3,3,0,0,1,3,3"/><path class="cls-1" d="M66,303a3,3,0,1,1-3-3,3,3,0,0,1,3,3"/><path class="cls-1" d="M66,363a3,3,0,1,1-3-3,3,3,0,0,1,3,3"/><path class="cls-1" d="M66,423a3,3,0,1,1-3-3,3,3,0,0,1,3,3"/><path class="cls-1" d="M66,483a3,3,0,1,1-3-3,3,3,0,0,1,3,3"/><path class="cls-1" d="M66,543a3,3,0,1,1-3-3,3,3,0,0,1,3,3"/><path class="cls-1" d="M66,603a3,3,0,1,1-3-3,3,3,0,0,1,3,3"/><path class="cls-1" d="M66,663a3,3,0,1,1-3-3,3,3,0,0,1,3,3"/><path class="cls-1" d="M66,723a3,3,0,1,1-3-3,3,3,0,0,1,3,3"/><path class="cls-1" d="M66,783a3,3,0,1,1-3-3,3,3,0,0,1,3,3"/><path class="cls-1" d="M66,843a3,3,0,1,1-3-3,3,3,0,0,1,3,3"/><path class="cls-1" d="M126,3a3,3,0,1,1-3-3,3,3,0,0,1,3,3"/><path class="cls-1" d="M126,63a3,3,0,1,1-3-3,3,3,0,0,1,3,3"/><path class="cls-1" d="M126,122.92a3,3,0,1,1-3-3,3,3,0,0,1,3,3"/><path class="cls-1" d="M126,183a3,3,0,1,1-3-3,3,3,0,0,1,3,3"/><path class="cls-1" d="M126,243a3,3,0,1,1-3-3,3,3,0,0,1,3,3"/><path class="cls-1" d="M126,303a3,3,0,1,1-3-3,3,3,0,0,1,3,3"/><path class="cls-1" d="M126,363a3,3,0,1,1-3-3,3,3,0,0,1,3,3"/><path class="cls-1" d="M126,423a3,3,0,1,1-3-3,3,3,0,0,1,3,3"/><path class="cls-1" d="M126,483a3,3,0,1,1-3-3,3,3,0,0,1,3,3"/><path class="cls-1" d="M126,543a3,3,0,1,1-3-3,3,3,0,0,1,3,3"/><path class="cls-1" d="M126,603a3,3,0,1,1-3-3,3,3,0,0,1,3,3"/><path class="cls-1" d="M126,663a3,3,0,1,1-3-3,3,3,0,0,1,3,3"/><path class="cls-1" d="M126,723a3,3,0,1,1-3-3,3,3,0,0,1,3,3"/><path class="cls-1" d="M126,783a3,3,0,1,1-3-3,3,3,0,0,1,3,3"/><path class="cls-1" d="M126,843a3,3,0,1,1-3-3,3,3,0,0,1,3,3"/><path class="cls-1" d="M186,3a3,3,0,1,1-3-3,3,3,0,0,1,3,3"/><path class="cls-1" d="M186,63a3,3,0,1,1-3-3,3,3,0,0,1,3,3"/><path class="cls-1" d="M186,122.92a3,3,0,1,1-3-3,3,3,0,0,1,3,3"/><path class="cls-1" d="M186,183a3,3,0,1,1-3-3,3,3,0,0,1,3,3"/><path class="cls-1" d="M186,243a3,3,0,1,1-3-3,3,3,0,0,1,3,3"/><path class="cls-1" d="M186,303a3,3,0,1,1-3-3,3,3,0,0,1,3,3"/><path class="cls-1" d="M186,363a3,3,0,1,1-3-3,3,3,0,0,1,3,3"/><path class="cls-1" d="M186,423a3,3,0,1,1-3-3,3,3,0,0,1,3,3"/><path class="cls-1" d="M186,483a3,3,0,1,1-3-3,3,3,0,0,1,3,3"/><path class="cls-1" d="M186,543a3,3,0,1,1-3-3,3,3,0,0,1,3,3"/><path class="cls-1" d="M186,603a3,3,0,1,1-3-3,3,3,0,0,1,3,3"/><path class="cls-1" d="M186,663a3,3,0,1,1-3-3,3,3,0,0,1,3,3"/><path class="cls-1" d="M186,723a3,3,0,1,1-3-3,3,3,0,0,1,3,3"/><path class="cls-1" d="M186,783a3,3,0,1,1-3-3,3,3,0,0,1,3,3"/><path class="cls-1" d="M186,843a3,3,0,1,1-3-3,3,3,0,0,1,3,3"/><path class="cls-1" d="M246,3a3,3,0,1,1-3-3,3,3,0,0,1,3,3"/><path class="cls-1" d="M246,63a3,3,0,1,1-3-3,3,3,0,0,1,3,3"/><path class="cls-1" d="M246,122.92a3,3,0,1,1-3-3,3,3,0,0,1,3,3"/><path class="cls-1" d="M246,183a3,3,0,1,1-3-3,3,3,0,0,1,3,3"/><path class="cls-1" d="M246,243a3,3,0,1,1-3-3,3,3,0,0,1,3,3"/><path class="cls-1" d="M246,303a3,3,0,1,1-3-3,3,3,0,0,1,3,3"/><path class="cls-1" d="M246,363a3,3,0,1,1-3-3,3,3,0,0,1,3,3"/><path class="cls-1" d="M246,423a3,3,0,1,1-3-3,3,3,0,0,1,3,3"/><path class="cls-1" d="M246,483a3,3,0,1,1-3-3,3,3,0,0,1,3,3"/><path class="cls-1" d="M246,543a3,3,0,1,1-3-3,3,3,0,0,1,3,3"/><path class="cls-1" d="M246,603a3,3,0,1,1-3-3,3,3,0,0,1,3,3"/><path class="cls-1" d="M246,663a3,3,0,1,1-3-3,3,3,0,0,1,3,3"/><path class="cls-1" d="M246,723a3,3,0,1,1-3-3,3,3,0,0,1,3,3"/><path class="cls-1" d="M246,783a3,3,0,1,1-3-3,3,3,0,0,1,3,3"/><path class="cls-1" d="M246,843a3,3,0,1,1-3-3,3,3,0,0,1,3,3"/><path class="cls-1" d="M306,3a3,3,0,1,1-3-3,3,3,0,0,1,3,3"/><path class="cls-1" d="M306,63a3,3,0,1,1-3-3,3,3,0,0,1,3,3"/><path class="cls-1" d="M306,122.92a3,3,0,1,1-3-3,3,3,0,0,1,3,3"/><path class="cls-1" d="M306,183a3,3,0,1,1-3-3,3,3,0,0,1,3,3"/><path class="cls-1" d="M306,243a3,3,0,1,1-3-3,3,3,0,0,1,3,3"/><path class="cls-1" d="M306,303a3,3,0,1,1-3-3,3,3,0,0,1,3,3"/><path class="cls-1" d="M306,363a3,3,0,1,1-3-3,3,3,0,0,1,3,3"/><path class="cls-1" d="M306,423a3,3,0,1,1-3-3,3,3,0,0,1,3,3"/><path class="cls-1" d="M306,483a3,3,0,1,1-3-3,3,3,0,0,1,3,3"/><path class="cls-1" d="M306,543a3,3,0,1,1-3-3,3,3,0,0,1,3,3"/><path class="cls-1" d="M306,603a3,3,0,1,1-3-3,3,3,0,0,1,3,3"/><path class="cls-1" d="M306,663a3,3,0,1,1-3-3,3,3,0,0,1,3,3"/><path class="cls-1" d="M306,723a3,3,0,1,1-3-3,3,3,0,0,1,3,3"/><path class="cls-1" d="M306,783a3,3,0,1,1-3-3,3,3,0,0,1,3,3"/><path class="cls-1" d="M306,843a3,3,0,1,1-3-3,3,3,0,0,1,3,3"/><path class="cls-1" d="M366,3a3,3,0,1,1-3-3,3,3,0,0,1,3,3"/><path class="cls-1" d="M366,63a3,3,0,1,1-3-3,3,3,0,0,1,3,3"/><path class="cls-1" d="M366,122.92a3,3,0,1,1-3-3,3,3,0,0,1,3,3"/><path class="cls-1" d="M366,183a3,3,0,1,1-3-3,3,3,0,0,1,3,3"/><path class="cls-1" d="M366,243a3,3,0,1,1-3-3,3,3,0,0,1,3,3"/><path class="cls-1" d="M366,303a3,3,0,1,1-3-3,3,3,0,0,1,3,3"/><path class="cls-1" d="M366,363a3,3,0,1,1-3-3,3,3,0,0,1,3,3"/><path class="cls-1" d="M366,423a3,3,0,1,1-3-3,3,3,0,0,1,3,3"/><path class="cls-1" d="M366,483a3,3,0,1,1-3-3,3,3,0,0,1,3,3"/><path class="cls-1" d="M366,543a3,3,0,1,1-3-3,3,3,0,0,1,3,3"/><path class="cls-1" d="M366,603a3,3,0,1,1-3-3,3,3,0,0,1,3,3"/><path class="cls-1" d="M366,663a3,3,0,1,1-3-3,3,3,0,0,1,3,3"/><path class="cls-1" d="M366,723a3,3,0,1,1-3-3,3,3,0,0,1,3,3"/><path class="cls-1" d="M366,783a3,3,0,1,1-3-3,3,3,0,0,1,3,3"/><path class="cls-1" d="M366,843a3,3,0,1,1-3-3,3,3,0,0,1,3,3"/><path class="cls-1" d="M426,3a3,3,0,1,1-3-3,3,3,0,0,1,3,3"/><path class="cls-1" d="M426,63a3,3,0,1,1-3-3,3,3,0,0,1,3,3"/><path class="cls-1" d="M426,122.92a3,3,0,1,1-3-3,3,3,0,0,1,3,3"/><path class="cls-1" d="M426,183a3,3,0,1,1-3-3,3,3,0,0,1,3,3"/><path class="cls-1" d="M426,243a3,3,0,1,1-3-3,3,3,0,0,1,3,3"/><path class="cls-1" d="M426,303a3,3,0,1,1-3-3,3,3,0,0,1,3,3"/><path class="cls-1" d="M426,363a3,3,0,1,1-3-3,3,3,0,0,1,3,3"/><path class="cls-1" d="M426,423a3,3,0,1,1-3-3,3,3,0,0,1,3,3"/><path class="cls-1" d="M426,483a3,3,0,1,1-3-3,3,3,0,0,1,3,3"/><path class="cls-1" d="M426,543a3,3,0,1,1-3-3,3,3,0,0,1,3,3"/><path class="cls-1" d="M426,603a3,3,0,1,1-3-3,3,3,0,0,1,3,3"/><path class="cls-1" d="M426,663a3,3,0,1,1-3-3,3,3,0,0,1,3,3"/><path class="cls-1" d="M426,723a3,3,0,1,1-3-3,3,3,0,0,1,3,3"/><path class="cls-1" d="M426,783a3,3,0,1,1-3-3,3,3,0,0,1,3,3"/><path class="cls-1" d="M426,843a3,3,0,1,1-3-3,3,3,0,0,1,3,3"/><path class="cls-1" d="M486,3a3,3,0,1,1-3-3,3,3,0,0,1,3,3"/><path class="cls-1" d="M486,63a3,3,0,1,1-3-3,3,3,0,0,1,3,3"/><path class="cls-1" d="M486,122.92a3,3,0,1,1-3-3,3,3,0,0,1,3,3"/><path class="cls-1" d="M486,183a3,3,0,1,1-3-3,3,3,0,0,1,3,3"/><path class="cls-1" d="M486,243a3,3,0,1,1-3-3,3,3,0,0,1,3,3"/><path class="cls-1" d="M486,303a3,3,0,1,1-3-3,3,3,0,0,1,3,3"/><path class="cls-1" d="M486,363a3,3,0,1,1-3-3,3,3,0,0,1,3,3"/><path class="cls-1" d="M486,423a3,3,0,1,1-3-3,3,3,0,0,1,3,3"/><path class="cls-1" d="M486,483a3,3,0,1,1-3-3,3,3,0,0,1,3,3"/><path class="cls-1" d="M486,543a3,3,0,1,1-3-3,3,3,0,0,1,3,3"/><path class="cls-1" d="M486,603a3,3,0,1,1-3-3,3,3,0,0,1,3,3"/><path class="cls-1" d="M486,663a3,3,0,1,1-3-3,3,3,0,0,1,3,3"/><path class="cls-1" d="M486,723a3,3,0,1,1-3-3,3,3,0,0,1,3,3"/><path class="cls-1" d="M486,783a3,3,0,1,1-3-3,3,3,0,0,1,3,3"/><path class="cls-1" d="M486,843a3,3,0,1,1-3-3,3,3,0,0,1,3,3"/><path class="cls-1" d="M546,3a3,3,0,1,1-3-3,3,3,0,0,1,3,3"/><path class="cls-1" d="M546,63a3,3,0,1,1-3-3,3,3,0,0,1,3,3"/><path class="cls-1" d="M546,122.92a3,3,0,1,1-3-3,3,3,0,0,1,3,3"/><path class="cls-1" d="M546,183a3,3,0,1,1-3-3,3,3,0,0,1,3,3"/><path class="cls-1" d="M546,243a3,3,0,1,1-3-3,3,3,0,0,1,3,3"/><path class="cls-1" d="M546,303a3,3,0,1,1-3-3,3,3,0,0,1,3,3"/><path class="cls-1" d="M546,363a3,3,0,1,1-3-3,3,3,0,0,1,3,3"/><path class="cls-1" d="M546,423a3,3,0,1,1-3-3,3,3,0,0,1,3,3"/><path class="cls-1" d="M546,483a3,3,0,1,1-3-3,3,3,0,0,1,3,3"/><path class="cls-1" d="M546,543a3,3,0,1,1-3-3,3,3,0,0,1,3,3"/><path class="cls-1" d="M546,603a3,3,0,1,1-3-3,3,3,0,0,1,3,3"/><path class="cls-1" d="M546,663a3,3,0,1,1-3-3,3,3,0,0,1,3,3"/><path class="cls-1" d="M546,723a3,3,0,1,1-3-3,3,3,0,0,1,3,3"/><path class="cls-1" d="M546,783a3,3,0,1,1-3-3,3,3,0,0,1,3,3"/><path class="cls-1" d="M546,843a3,3,0,1,1-3-3,3,3,0,0,1,3,3"/><path class="cls-1" d="M606,3a3,3,0,1,1-3-3,3,3,0,0,1,3,3"/><path class="cls-1" d="M606,63a3,3,0,1,1-3-3,3,3,0,0,1,3,3"/><path class="cls-1" d="M606,122.92a3,3,0,1,1-3-3,3,3,0,0,1,3,3"/><path class="cls-1" d="M606,183a3,3,0,1,1-3-3,3,3,0,0,1,3,3"/><path class="cls-1" d="M606,243a3,3,0,1,1-3-3,3,3,0,0,1,3,3"/><path class="cls-1" d="M606,303a3,3,0,1,1-3-3,3,3,0,0,1,3,3"/><path class="cls-1" d="M606,363a3,3,0,1,1-3-3,3,3,0,0,1,3,3"/><path class="cls-1" d="M606,423a3,3,0,1,1-3-3,3,3,0,0,1,3,3"/><path class="cls-1" d="M606,483a3,3,0,1,1-3-3,3,3,0,0,1,3,3"/><path class="cls-1" d="M606,543a3,3,0,1,1-3-3,3,3,0,0,1,3,3"/><path class="cls-1" d="M606,603a3,3,0,1,1-3-3,3,3,0,0,1,3,3"/><path class="cls-1" d="M606,663a3,3,0,1,1-3-3,3,3,0,0,1,3,3"/><path class="cls-1" d="M606,723a3,3,0,1,1-3-3,3,3,0,0,1,3,3"/><path class="cls-1" d="M606,783a3,3,0,1,1-3-3,3,3,0,0,1,3,3"/><path class="cls-1" d="M606,843a3,3,0,1,1-3-3,3,3,0,0,1,3,3"/><path class="cls-1" d="M666,3a3,3,0,1,1-3-3,3,3,0,0,1,3,3"/><path class="cls-1" d="M666,63a3,3,0,1,1-3-3,3,3,0,0,1,3,3"/><path class="cls-1" d="M666,122.92a3,3,0,1,1-3-3,3,3,0,0,1,3,3"/><path class="cls-1" d="M666,183a3,3,0,1,1-3-3,3,3,0,0,1,3,3"/><path class="cls-1" d="M666,243a3,3,0,1,1-3-3,3,3,0,0,1,3,3"/><path class="cls-1" d="M666,303a3,3,0,1,1-3-3,3,3,0,0,1,3,3"/><path class="cls-1" d="M666,363a3,3,0,1,1-3-3,3,3,0,0,1,3,3"/><path class="cls-1" d="M666,423a3,3,0,1,1-3-3,3,3,0,0,1,3,3"/><path class="cls-1" d="M666,483a3,3,0,1,1-3-3,3,3,0,0,1,3,3"/><path class="cls-1" d="M666,543a3,3,0,1,1-3-3,3,3,0,0,1,3,3"/><path class="cls-1" d="M666,603a3,3,0,1,1-3-3,3,3,0,0,1,3,3"/><path class="cls-1" d="M666,663a3,3,0,1,1-3-3,3,3,0,0,1,3,3"/><path class="cls-1" d="M666,723a3,3,0,1,1-3-3,3,3,0,0,1,3,3"/><path class="cls-1" d="M666,783a3,3,0,1,1-3-3,3,3,0,0,1,3,3"/><path class="cls-1" d="M666,843a3,3,0,1,1-3-3,3,3,0,0,1,3,3"/><path class="cls-1" d="M726,3a3,3,0,1,1-3-3,3,3,0,0,1,3,3"/><path class="cls-1" d="M726,63a3,3,0,1,1-3-3,3,3,0,0,1,3,3"/><path class="cls-1" d="M726,122.92a3,3,0,1,1-3-3,3,3,0,0,1,3,3"/><path class="cls-1" d="M726,183a3,3,0,1,1-3-3,3,3,0,0,1,3,3"/><path class="cls-1" d="M726,243a3,3,0,1,1-3-3,3,3,0,0,1,3,3"/><path class="cls-1" d="M726,303a3,3,0,1,1-3-3,3,3,0,0,1,3,3"/><path class="cls-1" d="M726,363a3,3,0,1,1-3-3,3,3,0,0,1,3,3"/><path class="cls-1" d="M726,423a3,3,0,1,1-3-3,3,3,0,0,1,3,3"/><path class="cls-1" d="M726,483a3,3,0,1,1-3-3,3,3,0,0,1,3,3"/><path class="cls-1" d="M726,543a3,3,0,1,1-3-3,3,3,0,0,1,3,3"/><path class="cls-1" d="M726,603a3,3,0,1,1-3-3,3,3,0,0,1,3,3"/><path class="cls-1" d="M726,663a3,3,0,1,1-3-3,3,3,0,0,1,3,3"/><path class="cls-1" d="M726,723a3,3,0,1,1-3-3,3,3,0,0,1,3,3"/><path class="cls-1" d="M726,783a3,3,0,1,1-3-3,3,3,0,0,1,3,3"/><path class="cls-1" d="M726,843a3,3,0,1,1-3-3,3,3,0,0,1,3,3"/><path class="cls-1" d="M786,3a3,3,0,1,1-3-3,3,3,0,0,1,3,3"/><path class="cls-1" d="M786,63a3,3,0,1,1-3-3,3,3,0,0,1,3,3"/><path class="cls-1" d="M786,122.92a3,3,0,1,1-3-3,3,3,0,0,1,3,3"/><path class="cls-1" d="M786,183a3,3,0,1,1-3-3,3,3,0,0,1,3,3"/><path class="cls-1" d="M786,243a3,3,0,1,1-3-3,3,3,0,0,1,3,3"/><path class="cls-1" d="M786,303a3,3,0,1,1-3-3,3,3,0,0,1,3,3"/><path class="cls-1" d="M786,363a3,3,0,1,1-3-3,3,3,0,0,1,3,3"/><path class="cls-1" d="M786,423a3,3,0,1,1-3-3,3,3,0,0,1,3,3"/><path class="cls-1" d="M786,483a3,3,0,1,1-3-3,3,3,0,0,1,3,3"/><path class="cls-1" d="M786,543a3,3,0,1,1-3-3,3,3,0,0,1,3,3"/><path class="cls-1" d="M786,603a3,3,0,1,1-3-3,3,3,0,0,1,3,3"/><path class="cls-1" d="M786,663a3,3,0,1,1-3-3,3,3,0,0,1,3,3"/><path class="cls-1" d="M786,723a3,3,0,1,1-3-3,3,3,0,0,1,3,3"/><path class="cls-1" d="M786,783a3,3,0,1,1-3-3,3,3,0,0,1,3,3"/><path class="cls-1" d="M786,843a3,3,0,1,1-3-3,3,3,0,0,1,3,3"/><path class="cls-1" d="M846,3a3,3,0,1,1-3-3,3,3,0,0,1,3,3"/><path class="cls-1" d="M846,63a3,3,0,1,1-3-3,3,3,0,0,1,3,3"/><path class="cls-1" d="M846,122.92a3,3,0,1,1-3-3,3,3,0,0,1,3,3"/><path class="cls-1" d="M846,183a3,3,0,1,1-3-3,3,3,0,0,1,3,3"/><path class="cls-1" d="M846,243a3,3,0,1,1-3-3,3,3,0,0,1,3,3"/><path class="cls-1" d="M846,303a3,3,0,1,1-3-3,3,3,0,0,1,3,3"/><path class="cls-1" d="M846,363a3,3,0,1,1-3-3,3,3,0,0,1,3,3"/><path class="cls-1" d="M846,423a3,3,0,1,1-3-3,3,3,0,0,1,3,3"/><path class="cls-1" d="M846,483a3,3,0,1,1-3-3,3,3,0,0,1,3,3"/><path class="cls-1" d="M846,543a3,3,0,1,1-3-3,3,3,0,0,1,3,3"/><path class="cls-1" d="M846,603a3,3,0,1,1-3-3,3,3,0,0,1,3,3"/><path class="cls-1" d="M846,663a3,3,0,1,1-3-3,3,3,0,0,1,3,3"/><path class="cls-1" d="M846,723a3,3,0,1,1-3-3,3,3,0,0,1,3,3"/><path class="cls-1" d="M846,783a3,3,0,1,1-3-3,3,3,0,0,1,3,3"/><path class="cls-1" d="M846,843a3,3,0,1,1-3-3,3,3,0,0,1,3,3"/><path class="cls-1" d="M906,3a3,3,0,1,1-3-3,3,3,0,0,1,3,3"/><path class="cls-1" d="M906,63a3,3,0,1,1-3-3,3,3,0,0,1,3,3"/><path class="cls-1" d="M906,122.92a3,3,0,1,1-3-3,3,3,0,0,1,3,3"/><path class="cls-1" d="M906,183a3,3,0,1,1-3-3,3,3,0,0,1,3,3"/><path class="cls-1" d="M906,243a3,3,0,1,1-3-3,3,3,0,0,1,3,3"/><path class="cls-1" d="M906,303a3,3,0,1,1-3-3,3,3,0,0,1,3,3"/><path class="cls-1" d="M906,363a3,3,0,1,1-3-3,3,3,0,0,1,3,3"/><path class="cls-1" d="M906,423a3,3,0,1,1-3-3,3,3,0,0,1,3,3"/><path class="cls-1" d="M906,483a3,3,0,1,1-3-3,3,3,0,0,1,3,3"/><path class="cls-1" d="M906,543a3,3,0,1,1-3-3,3,3,0,0,1,3,3"/><path class="cls-1" d="M906,603a3,3,0,1,1-3-3,3,3,0,0,1,3,3"/><path class="cls-1" d="M906,663a3,3,0,1,1-3-3,3,3,0,0,1,3,3"/><path class="cls-1" d="M906,723a3,3,0,1,1-3-3,3,3,0,0,1,3,3"/><path class="cls-1" d="M906,783a3,3,0,1,1-3-3,3,3,0,0,1,3,3"/><path class="cls-1" d="M906,843a3,3,0,1,1-3-3,3,3,0,0,1,3,3"/><path class="cls-1" d="M966,3a3,3,0,1,1-3-3,3,3,0,0,1,3,3"/><path class="cls-1" d="M966,63a3,3,0,1,1-3-3,3,3,0,0,1,3,3"/><path class="cls-1" d="M966,122.92a3,3,0,1,1-3-3,3,3,0,0,1,3,3"/><path class="cls-1" d="M966,183a3,3,0,1,1-3-3,3,3,0,0,1,3,3"/><path class="cls-1" d="M966,243a3,3,0,1,1-3-3,3,3,0,0,1,3,3"/><path class="cls-1" d="M966,303a3,3,0,1,1-3-3,3,3,0,0,1,3,3"/><path class="cls-1" d="M966,363a3,3,0,1,1-3-3,3,3,0,0,1,3,3"/><path class="cls-1" d="M966,423a3,3,0,1,1-3-3,3,3,0,0,1,3,3"/><path class="cls-1" d="M966,483a3,3,0,1,1-3-3,3,3,0,0,1,3,3"/><path class="cls-1" d="M966,543a3,3,0,1,1-3-3,3,3,0,0,1,3,3"/><path class="cls-1" d="M966,603a3,3,0,1,1-3-3,3,3,0,0,1,3,3"/><path class="cls-1" d="M966,663a3,3,0,1,1-3-3,3,3,0,0,1,3,3"/><path class="cls-1" d="M966,723a3,3,0,1,1-3-3,3,3,0,0,1,3,3"/><path class="cls-1" d="M966,783a3,3,0,1,1-3-3,3,3,0,0,1,3,3"/><path class="cls-1" d="M966,843a3,3,0,1,1-3-3,3,3,0,0,1,3,3"/><path class="cls-1" d="M1026,3a3,3,0,1,1-3-3,3,3,0,0,1,3,3"/><path class="cls-1" d="M1026,63a3,3,0,1,1-3-3,3,3,0,0,1,3,3"/><path class="cls-1" d="M1026,122.92a3,3,0,1,1-3-3,3,3,0,0,1,3,3"/><path class="cls-1" d="M1086,63a3,3,0,1,1-3-3,3,3,0,0,1,3,3"/><path class="cls-1" d="M1086,122.92a3,3,0,1,1-3-3,3,3,0,0,1,3,3"/><path class="cls-1" d="M1026,183a3,3,0,1,1-3-3,3,3,0,0,1,3,3"/><path class="cls-1" d="M1026,243a3,3,0,1,1-3-3,3,3,0,0,1,3,3"/><path class="cls-1" d="M1026,303a3,3,0,1,1-3-3,3,3,0,0,1,3,3"/><path class="cls-1" d="M1026,363a3,3,0,1,1-3-3,3,3,0,0,1,3,3"/><path class="cls-1" d="M1026,423a3,3,0,1,1-3-3,3,3,0,0,1,3,3"/><path class="cls-1" d="M1026,483a3,3,0,1,1-3-3,3,3,0,0,1,3,3"/><path class="cls-1" d="M1026,543a3,3,0,1,1-3-3,3,3,0,0,1,3,3"/><path class="cls-1" d="M1026,603a3,3,0,1,1-3-3,3,3,0,0,1,3,3"/><path class="cls-1" d="M1026,663a3,3,0,1,1-3-3,3,3,0,0,1,3,3"/><path class="cls-1" d="M1026,723a3,3,0,1,1-3-3,3,3,0,0,1,3,3"/><path class="cls-1" d="M1026,783a3,3,0,1,1-3-3,3,3,0,0,1,3,3"/><path class="cls-1" d="M1026,843a3,3,0,1,1-3-3,3,3,0,0,1,3,3"/><path class="cls-1" d="M1086,3a3,3,0,1,1-3-3,3,3,0,0,1,3,3"/><path class="cls-1" d="M1086,183a3,3,0,1,1-3-3,3,3,0,0,1,3,3"/><path class="cls-1" d="M1086,243a3,3,0,1,1-3-3,3,3,0,0,1,3,3"/><path class="cls-1" d="M1086,303a3,3,0,1,1-3-3,3,3,0,0,1,3,3"/><path class="cls-1" d="M1086,363a3,3,0,1,1-3-3,3,3,0,0,1,3,3"/><path class="cls-1" d="M1086,423a3,3,0,1,1-3-3,3,3,0,0,1,3,3"/><path class="cls-1" d="M1086,483a3,3,0,1,1-3-3,3,3,0,0,1,3,3"/><path class="cls-1" d="M1086,543a3,3,0,1,1-3-3,3,3,0,0,1,3,3"/><path class="cls-1" d="M1086,603a3,3,0,1,1-3-3,3,3,0,0,1,3,3"/><path class="cls-1" d="M1086,663a3,3,0,1,1-3-3,3,3,0,0,1,3,3"/><path class="cls-1" d="M1086,723a3,3,0,1,1-3-3,3,3,0,0,1,3,3"/><path class="cls-1" d="M1086,783a3,3,0,1,1-3-3,3,3,0,0,1,3,3"/><path class="cls-1" d="M1086,843a3,3,0,1,1-3-3,3,3,0,0,1,3,3"/><path class="cls-1" d="M1146,3a3,3,0,1,1-3-3,3,3,0,0,1,3,3"/><path class="cls-1" d="M1146,183a3,3,0,1,1-3-3,3,3,0,0,1,3,3"/><path class="cls-1" d="M1146,243a3,3,0,1,1-3-3,3,3,0,0,1,3,3"/><path class="cls-1" d="M1146,303a3,3,0,1,1-3-3,3,3,0,0,1,3,3"/><path class="cls-1" d="M1146,363a3,3,0,1,1-3-3,3,3,0,0,1,3,3"/><path class="cls-1" d="M1146,423a3,3,0,1,1-3-3,3,3,0,0,1,3,3"/><path class="cls-1" d="M1146,483a3,3,0,1,1-3-3,3,3,0,0,1,3,3"/><path class="cls-1" d="M1146,543a3,3,0,1,1-3-3,3,3,0,0,1,3,3"/><path class="cls-1" d="M1146,603a3,3,0,1,1-3-3,3,3,0,0,1,3,3"/><path class="cls-1" d="M1146,663a3,3,0,1,1-3-3,3,3,0,0,1,3,3"/><path class="cls-1" d="M1146,723a3,3,0,1,1-3-3,3,3,0,0,1,3,3"/><path class="cls-1" d="M1146,783a3,3,0,1,1-3-3,3,3,0,0,1,3,3"/><path class="cls-1" d="M1146,843a3,3,0,1,1-3-3,3,3,0,0,1,3,3"/><path class="cls-1" d="M1206,3a3,3,0,1,1-3-3,3,3,0,0,1,3,3"/><path class="cls-1" d="M1206,183a3,3,0,1,1-3-3,3,3,0,0,1,3,3"/><path class="cls-1" d="M1206,243a3,3,0,1,1-3-3,3,3,0,0,1,3,3"/><path class="cls-1" d="M1206,303a3,3,0,1,1-3-3,3,3,0,0,1,3,3"/><path class="cls-1" d="M1206,363a3,3,0,1,1-3-3,3,3,0,0,1,3,3"/><path class="cls-1" d="M1206,423a3,3,0,1,1-3-3,3,3,0,0,1,3,3"/><path class="cls-1" d="M1206,483a3,3,0,1,1-3-3,3,3,0,0,1,3,3"/><path class="cls-1" d="M1206,543a3,3,0,1,1-3-3,3,3,0,0,1,3,3"/><path class="cls-1" d="M1206,603a3,3,0,1,1-3-3,3,3,0,0,1,3,3"/><path class="cls-1" d="M1206,663a3,3,0,1,1-3-3,3,3,0,0,1,3,3"/><path class="cls-1" d="M1206,723a3,3,0,1,1-3-3,3,3,0,0,1,3,3"/><path class="cls-1" d="M1206,783a3,3,0,1,1-3-3,3,3,0,0,1,3,3"/><path class="cls-1" d="M1206,843a3,3,0,1,1-3-3,3,3,0,0,1,3,3"/><path class="cls-1" d="M1266,3a3,3,0,1,1-3-3,3,3,0,0,1,3,3"/><path class="cls-1" d="M1266,183a3,3,0,1,1-3-3,3,3,0,0,1,3,3"/><path class="cls-1" d="M1266,243a3,3,0,1,1-3-3,3,3,0,0,1,3,3"/><path class="cls-1" d="M1266,303a3,3,0,1,1-3-3,3,3,0,0,1,3,3"/><path class="cls-1" d="M1266,363a3,3,0,1,1-3-3,3,3,0,0,1,3,3"/><path class="cls-1" d="M1266,423a3,3,0,1,1-3-3,3,3,0,0,1,3,3"/><path class="cls-1" d="M1266,483a3,3,0,1,1-3-3,3,3,0,0,1,3,3"/><path class="cls-1" d="M1266,543a3,3,0,1,1-3-3,3,3,0,0,1,3,3"/><path class="cls-1" d="M1266,603a3,3,0,1,1-3-3,3,3,0,0,1,3,3"/><path class="cls-1" d="M1266,663a3,3,0,1,1-3-3,3,3,0,0,1,3,3"/><path class="cls-1" d="M1266,723a3,3,0,1,1-3-3,3,3,0,0,1,3,3"/><path class="cls-1" d="M1266,783a3,3,0,1,1-3-3,3,3,0,0,1,3,3"/><path class="cls-1" d="M1266,843a3,3,0,1,1-3-3,3,3,0,0,1,3,3"/><path class="cls-1" d="M1326,3a3,3,0,1,1-3-3,3,3,0,0,1,3,3"/><path class="cls-1" d="M1326,183a3,3,0,1,1-3-3,3,3,0,0,1,3,3"/><path class="cls-1" d="M1326,243a3,3,0,1,1-3-3,3,3,0,0,1,3,3"/><path class="cls-1" d="M1326,303a3,3,0,1,1-3-3,3,3,0,0,1,3,3"/><path class="cls-1" d="M1326,363a3,3,0,1,1-3-3,3,3,0,0,1,3,3"/><path class="cls-1" d="M1326,423a3,3,0,1,1-3-3,3,3,0,0,1,3,3"/><path class="cls-1" d="M1326,483a3,3,0,1,1-3-3,3,3,0,0,1,3,3"/><path class="cls-1" d="M1326,543a3,3,0,1,1-3-3,3,3,0,0,1,3,3"/><path class="cls-1" d="M1326,603a3,3,0,1,1-3-3,3,3,0,0,1,3,3"/><path class="cls-1" d="M1326,663a3,3,0,1,1-3-3,3,3,0,0,1,3,3"/><path class="cls-1" d="M1326,723a3,3,0,1,1-3-3,3,3,0,0,1,3,3"/><path class="cls-1" d="M1326,783a3,3,0,1,1-3-3,3,3,0,0,1,3,3"/><path class="cls-1" d="M1326,843a3,3,0,1,1-3-3,3,3,0,0,1,3,3"/><path class="cls-1" d="M1386,3a3,3,0,1,1-3-3,3,3,0,0,1,3,3"/><path class="cls-1" d="M1386,183a3,3,0,1,1-3-3,3,3,0,0,1,3,3"/><path class="cls-1" d="M1146,122.82a3,3,0,1,1-3-3,3,3,0,0,1,3,3"/><path class="cls-1" d="M1206,122.82a3,3,0,1,1-3-3,3,3,0,0,1,3,3"/><path class="cls-1" d="M1266,122.82a3,3,0,1,1-3-3,3,3,0,0,1,3,3"/><path class="cls-1" d="M1326,122.82a3,3,0,1,1-3-3,3,3,0,0,1,3,3"/><path class="cls-1" d="M1386,122.82a3,3,0,1,1-3-3,3,3,0,0,1,3,3"/><path class="cls-1" d="M1146,62.64a3,3,0,1,1-3-3,3,3,0,0,1,3,3"/><path class="cls-1" d="M1206,62.64a3,3,0,1,1-3-3,3,3,0,0,1,3,3"/><path class="cls-1" d="M1266,62.64a3,3,0,1,1-3-3,3,3,0,0,1,3,3"/><path class="cls-1" d="M1326,62.64a3,3,0,1,1-3-3,3,3,0,0,1,3,3"/><path class="cls-1" d="M1386,62.64a3,3,0,1,1-3-3,3,3,0,0,1,3,3"/><path class="cls-1" d="M1386,243a3,3,0,1,1-3-3,3,3,0,0,1,3,3"/><path class="cls-1" d="M1386,303a3,3,0,1,1-3-3,3,3,0,0,1,3,3"/><path class="cls-1" d="M1386,363a3,3,0,1,1-3-3,3,3,0,0,1,3,3"/><path class="cls-1" d="M1386,423a3,3,0,1,1-3-3,3,3,0,0,1,3,3"/><path class="cls-1" d="M1386,483a3,3,0,1,1-3-3,3,3,0,0,1,3,3"/><path class="cls-1" d="M1386,543a3,3,0,1,1-3-3,3,3,0,0,1,3,3"/><path class="cls-1" d="M1386,603a3,3,0,1,1-3-3,3,3,0,0,1,3,3"/><path class="cls-1" d="M1386,663a3,3,0,1,1-3-3,3,3,0,0,1,3,3"/><path class="cls-1" d="M1386,723a3,3,0,1,1-3-3,3,3,0,0,1,3,3"/><path class="cls-1" d="M1386,783a3,3,0,1,1-3-3,3,3,0,0,1,3,3"/><path class="cls-1" d="M1386,843a3,3,0,1,1-3-3,3,3,0,0,1,3,3"/><path class="cls-1" d="M1446,3a3,3,0,1,1-3-3,3,3,0,0,1,3,3"/><path class="cls-1" d="M1446,63a3,3,0,1,1-3-3,3,3,0,0,1,3,3"/><path class="cls-1" d="M1446,122.92a3,3,0,1,1-3-3,3,3,0,0,1,3,3"/><path class="cls-1" d="M1446,183a3,3,0,1,1-3-3,3,3,0,0,1,3,3"/><path class="cls-1" d="M1446,243a3,3,0,1,1-3-3,3,3,0,0,1,3,3"/><path class="cls-1" d="M1446,303a3,3,0,1,1-3-3,3,3,0,0,1,3,3"/><path class="cls-1" d="M1446,363a3,3,0,1,1-3-3,3,3,0,0,1,3,3"/><path class="cls-1" d="M1446,423a3,3,0,1,1-3-3,3,3,0,0,1,3,3"/><path class="cls-1" d="M1446,483a3,3,0,1,1-3-3,3,3,0,0,1,3,3"/><path class="cls-1" d="M1446,543a3,3,0,1,1-3-3,3,3,0,0,1,3,3"/><path class="cls-1" d="M1446,603a3,3,0,1,1-3-3,3,3,0,0,1,3,3"/><path class="cls-1" d="M1446,663a3,3,0,1,1-3-3,3,3,0,0,1,3,3"/><path class="cls-1" d="M1446,723a3,3,0,1,1-3-3,3,3,0,0,1,3,3"/><path class="cls-1" d="M1446,783a3,3,0,1,1-3-3,3,3,0,0,1,3,3"/><path class="cls-1" d="M1446,843a3,3,0,1,1-3-3,3,3,0,0,1,3,3"/></g></g></svg>