<svg xmlns="http://www.w3.org/2000/svg" width="497.16" height="295.141" viewBox="0 0 497.16 295.141">
    <defs>
        <style>
            .cls-4{fill:#191c48}
        </style>
    </defs>
    <g id="Groupe_7" stroke="#2d2d2d" stroke-miterlimit="10" stroke-width="2px" transform="translate(0 3.147)">
                <path id="Tracé_458" fill="#4285f4" d="M790.666 460.9l-16.984-9.806a4.837 4.837 0 0 0-4.837 8.377l16.985 9.806a4.836 4.836 0 1 0 4.836-8.377" transform="translate(-766.427 -440.637)"/>
                <path id="Tracé_459" fill="#0f9d58" d="M850.575 443.554l-16.984-9.806a4.836 4.836 0 0 0-4.836 8.376l16.984 9.806a4.836 4.836 0 0 0 4.836-8.377" transform="translate(-792.464 -433.099)"/>
                <path id="Tracé_460" fill="#fbbc04" d="M846.066 463.95l-7.928-4.577-8.384 4.84a4.836 4.836 0 1 0 4.836 8.377l13.653-7.881a6.187 6.187 0 0 1-2.178-.759" transform="translate(-792.899 -444.518)"/>
                <path id="Tracé_461" fill="#ea4335" d="M777.776 443.388l7.927 4.577 8.384-4.841a4.836 4.836 0 1 0-4.836-8.377L775.6 442.63a6.177 6.177 0 0 1 2.177.759" transform="translate(-770.413 -433.533)"/>
            </g>
</svg>