<?xml version="1.0" encoding="UTF-8" standalone="no"?>
<!DOCTYPE svg PUBLIC "-//W3C//DTD SVG 1.1//EN" "http://www.w3.org/Graphics/SVG/1.1/DTD/svg11.dtd">
<svg version="1.1" xmlns="http://www.w3.org/2000/svg" xmlns:xlink="http://www.w3.org/1999/xlink" preserveAspectRatio="xMidYMid meet" viewBox="-0.9472043261572188 2.161553548196926 64.47735947168997 33.27410159733579" width="60.48" height="29.27"><defs><path d="M24.24 23.41C14.05 17.53 8.39 14.26 7.25 13.6C4.92 12.3 1.98 13.13 0.67 15.46C-0.61 17.75 0.16 20.64 2.42 21.98C4.12 22.96 17.7 30.81 19.4 31.79C21.72 33.12 24.67 32.33 26.01 30.02C27.34 27.7 26.55 24.75 24.24 23.41" id="b3e1NajjKZ"></path><path d="M58.11 13.6C47.92 7.72 42.26 4.45 41.13 3.8C38.81 2.47 35.85 3.28 34.53 5.61C33.22 7.91 34.01 10.83 36.29 12.17C37.99 13.15 51.58 21 53.27 21.98C55.59 23.31 58.55 22.52 59.88 20.21C61.22 17.89 60.42 14.94 58.11 13.6" id="agBY4pzTM"></path><path d="M53.17 22.58L45.24 18C40.21 20.91 37.41 22.52 36.86 22.84C34.54 24.18 33.75 27.14 35.08 29.45C36.42 31.76 39.38 32.55 41.69 31.22C43.06 30.43 53.98 24.13 55.34 23.34C54.58 23.22 53.84 22.97 53.17 22.58" id="h2uaUbtJmE"></path><path d="M7.36 13L15.29 17.58C20.32 14.67 23.12 13.06 23.67 12.74C25.99 11.4 26.78 8.44 25.44 6.13C24.11 3.82 21.15 3.03 18.84 4.36C17.47 5.15 6.55 11.46 5.19 12.24C5.95 12.36 6.69 12.62 7.36 13" id="a16ypT3LA"></path></defs><g><g><use xlink:href="#b3e1NajjKZ" opacity="1" fill="white" fill-opacity="1"></use><g><use xlink:href="#b3e1NajjKZ" opacity="1" fill-opacity="0" stroke="#2d2d2d" stroke-width="2" stroke-opacity="1"></use></g></g><g><use xlink:href="#agBY4pzTM" opacity="1" fill="white" fill-opacity="1"></use><g><use xlink:href="#agBY4pzTM" opacity="1" fill-opacity="0" stroke="#2d2d2d" stroke-width="2" stroke-opacity="1"></use></g></g><g><use xlink:href="#h2uaUbtJmE" opacity="1" fill="white" fill-opacity="1"></use><g><use xlink:href="#h2uaUbtJmE" opacity="1" fill-opacity="0" stroke="#2d2d2d" stroke-width="2" stroke-opacity="1"></use></g></g><g><use xlink:href="#a16ypT3LA" opacity="1" fill="white" fill-opacity="1"></use><g><use xlink:href="#a16ypT3LA" opacity="1" fill-opacity="0" stroke="#2d2d2d" stroke-width="2" stroke-opacity="1"></use></g></g></g></svg>