<?xml version="1.0" encoding="utf-8"?>
<!-- Svg Vector Icons : http://www.onlinewebfonts.com/icon -->
<!DOCTYPE svg PUBLIC "-//W3C//DTD SVG 1.1//EN" "http://www.w3.org/Graphics/SVG/1.1/DTD/svg11.dtd">
<svg version="1.1" xmlns="http://www.w3.org/2000/svg" xmlns:xlink="http://www.w3.org/1999/xlink" fill="#F9AB00" x="0px" y="0px" viewBox="0 0 1000 1000" enable-background="new 0 0 1000 1000" xml:space="preserve">
<metadata> Svg Vector Icons : http://www.onlinewebfonts.com/icon </metadata>
<g><path d="M701.8,773.8c-9.2,7.8-20.9,13.1-32.8,13.1c-2.7,0-6.6,0-9.2-1.2l-34-6.6c-1.2,0-3.9,0-5.3,1.2l-11.9,13.1c-2.7,2.7-3.9,3.9-6.6,6.6l-6.6,7.8c-9.2,10.4-22.3,15.8-36.7,15.8c-9.2,0-17-2.7-23.5-6.6l-28.9-15.8c0,0-1.2,0-1.2-1.2c-1.2,0-2.7-1.2-3.9-1.2c-1.2,0-2.7,0-3.9,1.2c0,0-1.2,0-1.2,1.2L467.3,817c-6.6,3.9-15.8,6.6-23.5,6.6c-14.3,0-27.4-5.3-36.7-15.8l-6.6-7.8c-2.7-1.2-3.9-3.9-6.6-6.6l-11.9-13.1c-1.2-1.2-3.9-1.2-5.3-1.2l-34,6.6c-2.7,0-6.6,1.2-9.2,1.2c-11.9,0-23.5-5.3-32.8-13.1l-53.6,162.6c-2.7,10.4,2.7,15.8,11.9,11.9l101-35.4c9.2-3.9,23.5,0,30.1,7.8l53.6,64.3c6.6,7.8,14.3,6.6,17-3.9l39.3-173l42,173c2.7,10.4,10.4,11.9,17,3.9l53.6-64.3c6.6-7.8,19.7-11.9,30.1-7.8l101,35.4c9.2,3.9,15.8-1.2,11.9-11.9L701.8,773.8z"/><path d="M873.4,419.9c-5.3-9.2-5.3-23.5,0-32.8l17-30.1c5.3-9.2,2.7-22.3-5.3-28.9l-24.8-25c-7.8-6.6-11.9-20.9-10.4-31.5l6.6-34c2.7-10.4-3.9-22.3-13.1-26.2l-31.5-14.3c-9.2-3.9-18.4-15.8-19.7-26.2l-3.9-34c-1.2-10.4-10.4-19.7-20.9-20.9l-34-3.9c-10.4-1.2-22.3-10.4-26.2-19.7L692.8,61c-3.9-7.8-13.1-14.3-22.3-14.3c-1.2,0-2.7,0-3.9,0l-35.4,6.6c-1.2,0-3.9,0-5.3,0c-9.2,0-19.7-3.9-26.2-10.4l-23.5-25c-3.9-5.3-11.9-7.8-18.4-7.8c-3.9,0-7.8,1.2-11.9,2.7l-30.1,17c-3.9,2.7-10.4,3.9-17,3.9c-6.6,0-11.9-1.2-17-3.9l-30.1-17c-3.9-1.2-7.8-2.7-11.9-2.7c-6.6,0-13.1,2.7-18.4,7.8l-23.5,25c-6.6,6.6-17,10.4-26.2,10.4c-1.2,0-3.9,0-5.3,0l-34-6.6c-1.2,0-2.7,0-3.9,0c-9.2,0-18.4,5.3-22.3,14.3l-14.3,31.5c-3.9,9.2-15.8,18.4-26.2,19.7l-34,3.9c-10.4,1.2-19.7,10.4-20.9,20.9l-3.9,34c-1.2,10.4-10.4,22.3-19.7,26.2l-30.1,14.3c-9.2,3.9-15.8,15.8-13.1,26.2l6.6,34c2.7,10.4-2.7,25-10.4,31.5l-25,23.5c-7.8,6.6-9.2,19.7-5.3,28.9l17,30.1c5.3,9.2,5.3,23.5,0,32.8l-17,30.1c-5.3,9.2-2.7,22.3,5.3,28.9l25,23.5c7.8,6.6,11.9,20.9,10.4,31.5l-6.6,34c-2.7,10.4,3.9,22.3,13.1,26.2l31.5,14.3c9.2,3.9,18.4,15.8,19.7,26.2L212,670c1.2,10.4,10.4,19.7,20.9,20.9l34,3.9c10.4,1.2,22.3,10.4,26.2,19.7l14.3,31.5c1.2,2.7,2.7,3.9,5.3,6.6c5.3,3.9,11.9,7.8,17,7.8c1.2,0,2.7,0,3.9,0l34-6.6c1.2,0,3.9,0,5.3,0c9.2,0,19.7,3.9,26.2,10.4l23.5,25c3.9,5.3,11.9,7.8,18.4,7.8c3.9,0,7.8-1.2,11.9-2.7l30.1-17c1.2,0,1.2,0,2.7-1.2c3.9-1.2,9.2-2.7,14.3-2.7c5.3,0,10.4,1.2,14.3,2.7c1.2,0,1.2,0,2.7,1.2l29.9,17.4c3.9,1.2,7.8,2.7,11.9,2.7c6.6,0,13.1-2.7,18.4-7.8l23.5-25c6.6-6.6,17-10.4,26.2-10.4c1.2,0,3.9,0,5.3,0l34,6.6c1.2,0,2.7,0,3.9,0c6.6,0,13.1-2.7,17-7.8c1.2-1.2,3.9-3.9,5.3-6.6l14.3-31.5c3.9-9.2,15.8-18.4,26.2-19.7l34-3.9c10.4-1.2,19.7-10.4,20.9-20.9l3.9-34c1.2-10.4,10.4-22.3,19.7-26.2l31.5-14.3c9.2-3.9,15.8-15.8,13.1-26.2l-6.6-34c-2.7-10.4,2.7-25,10.4-31.5l25-23.5c7.8-6.6,9.2-19.7,5.3-28.9L873.4,419.9z M658.4,667.5c-38.1,23.5-82.5,38.1-128.4,43.2c-10.4,1.2-19.7,1.2-30.1,1.2c-10.4,0-19.7,0-30.1-1.2c-47.1-3.9-90.5-19.7-128.4-43.2c-90.5-53.6-150.7-151.9-150.7-264.8c0-170.4,138.8-309.2,309.2-309.2c170.4,0,309.2,138.8,309.2,309.2C809.1,515.6,748.9,613.9,658.4,667.5z"/><path d="M499.9,126.3C346.5,126.3,222,250.8,222,404.2c0,98.3,51.2,184.7,128.4,233.2c32.8,20.9,70.8,35.4,111.4,40.5c11.9,1.2,25,2.7,38.1,2.7c13.1,0,25-1.2,38.1-2.7c40.5-5.3,77.4-19.7,111.4-40.5c77.4-49.8,128.4-134.9,128.4-233.2C777.8,250.8,653.3,126.3,499.9,126.3z M585.1,428.9l19.7,109.1l-103-51.4l-103.2,51.4l19.7-109.1l-83.3-77.2l115.3-16l51.6-99.1l51.6,99.1l115.3,16L585.1,428.9z"/></g>
</svg>