<svg viewBox="0 0 560 400" xmlns="http://www.w3.org/2000/svg" fill-rule="evenodd" clip-rule="evenodd"><clipPath id="a"><path d="M30 118.4h500v163.2h-500z"/></clipPath><g clip-path="url(#a)"><path d="M91.577 118.414h4.446c15.437.336 30.621 6.544 41.527 17.534-4.027 4.111-8.137 8.054-12.08 12.164-6.124-5.536-13.507-9.815-21.561-11.325-11.912-2.517-24.748-.252-34.731 6.544-10.906 7.13-18.289 19.211-19.883 32.13-1.761 12.752 1.846 26.175 10.151 36.074 7.97 9.648 20.135 15.688 32.718 16.108 11.745.671 23.994-2.937 32.551-11.158 6.711-5.789 9.815-14.597 10.822-23.154-13.926 0-27.852.083-41.779 0v-17.282h58.641c3.02 18.54-1.342 39.429-15.436 52.684-9.396 9.396-22.399 14.933-35.654 16.024-12.836 1.258-26.091-1.175-37.5-7.383-13.675-7.298-24.581-19.631-29.95-34.144-5.033-13.339-5.117-28.44-.419-41.863 4.278-12.248 12.5-23.07 23.07-30.62 10.151-7.467 22.483-11.578 35.067-12.333z" fill="#3780ff"/><path d="M427.987 122.777h17.953v119.799c-5.957 0-11.997.083-17.953-.084.083-39.849 0-79.782 0-119.715z" fill="#38b137"/><path d="M192.332 164.304c11.074-2.098 23.071.251 32.215 6.879 8.305 5.872 14.094 15.101 15.856 25.168 2.265 11.661-.588 24.412-8.138 33.641-8.137 10.318-21.476 15.855-34.48 15.016-11.913-.671-23.49-6.627-30.537-16.359-7.969-10.738-9.899-25.503-5.537-38.087 4.363-13.507 16.695-23.825 30.621-26.258m2.517 15.939c-4.53 1.175-8.725 3.775-11.745 7.467-8.138 9.731-7.634 25.587 1.342 34.647 5.118 5.202 12.836 7.635 19.967 6.208 6.627-1.174 12.416-5.62 15.604-11.493 5.537-9.983 3.943-23.741-4.53-31.543-5.453-5.034-13.423-7.131-20.638-5.286z" fill="#fa3913"/><path d="M281.258 164.304c12.668-2.433 26.51 1.09 35.99 9.983 15.437 13.842 17.114 39.765 3.943 55.705-7.97 10.067-20.889 15.604-33.641 15.016-12.164-.335-24.161-6.375-31.376-16.359-8.137-10.99-9.899-26.09-5.285-38.926 4.614-13.087 16.695-23.07 30.369-25.419m2.517 15.939c-4.53 1.175-8.725 3.775-11.745 7.383-8.053 9.564-7.718 25.168.923 34.312 5.117 5.453 13.087 8.138 20.47 6.627 6.543-1.258 12.416-5.62 15.604-11.493 5.453-10.067 3.859-23.825-4.698-31.627-5.453-5.034-13.423-7.047-20.554-5.202z" fill="#fcbd06"/><path d="M356.678 169.169c9.648-6.04 22.483-7.718 32.886-2.516 3.272 1.426 5.956 3.859 8.557 6.292l.084-6.963 16.946.083v73.994c-.084 11.157-2.936 22.986-10.99 31.124-8.809 8.976-22.315 11.745-34.48 9.899-13.003-1.929-24.329-11.409-29.362-23.406 5.033-2.433 10.319-4.362 15.52-6.627 2.936 6.879 8.893 12.751 16.359 14.094 7.466 1.342 16.107-.504 20.973-6.712 5.201-6.376 5.201-15.1 4.95-22.902-3.859 3.775-8.306 7.13-13.675 8.389-11.661 3.272-24.496-.755-33.473-8.641-9.06-7.886-14.429-20.05-13.926-32.131.252-13.675 7.97-26.846 19.631-33.977m17.366 10.739c-5.118.839-9.9 3.691-13.172 7.634-7.885 9.396-7.885 24.413.084 33.641 4.531 5.453 11.829 8.473 18.876 7.718 6.628-.671 12.752-4.866 16.024-10.654 5.537-9.816 4.614-23.155-2.853-31.712-4.614-5.285-11.996-7.886-18.959-6.627z" fill="#3780ff"/><path d="M467.5 173.448c10.067-9.396 25.587-12.584 38.507-7.634 12.248 4.614 20.05 16.275 23.993 28.272-18.205 7.55-36.326 15.016-54.53 22.567 2.517 4.782 6.376 9.144 11.577 10.906 7.299 2.6 16.023 1.678 22.148-3.188 2.433-1.846 4.362-4.279 6.208-6.628l13.842 9.228c-6.544 9.816-17.534 16.695-29.362 17.786-13.088 1.594-27.014-3.44-35.487-13.675-13.926-16.107-12.584-43.121 3.104-57.634m8.977 15.52c-2.853 4.111-4.027 9.144-3.943 14.094 12.164-5.033 24.328-10.067 36.493-15.184-2.014-4.698-6.879-7.551-11.829-8.306-7.97-1.426-16.275 2.852-20.721 9.396z" fill="#fa3913"/></g></svg>