<svg xmlns="http://www.w3.org/2000/svg" viewBox="0 0 162.97 161.47"><defs><style>.cls-1{fill:#fff;}.cls-2{opacity:0.28;}</style></defs><title>Asset 1</title><g id="Layer_2" data-name="Layer 2"><g id="Layer_2-2" data-name="Layer 2"><path class="cls-1" d="M156.78,73.39c-.08-1.22-.18-2.43-.31-3.64A78.53,78.53,0,0,0,155,61a78.14,78.14,0,0,0-6.21-17.43c-.24-.48-.48-1-.73-1.42a76.18,76.18,0,0,0-4.33-7.3q-2.05-3.08-4.39-5.93c-.77-.95-1.56-1.88-2.38-2.79a77,77,0,0,0-6.33-6.32c-.93-.82-1.87-1.62-2.83-2.4-1.89-1.53-3.86-3-5.89-4.33a78.21,78.21,0,0,0-7.45-4.39l-1.27-.64a76.86,76.86,0,0,0-8.72-3.67A78.3,78.3,0,0,0,87,.46,80.52,80.52,0,0,0,78.47,0h-.16A77.89,77.89,0,0,0,43.43,8.24c-.31.16-.63.31-.94.48a78.77,78.77,0,0,0-7.78,4.61q-2.88,1.93-5.56,4.11c-1.08.87-2.13,1.77-3.16,2.69a79.52,79.52,0,0,0-6,6c-.93,1-1.83,2.1-2.71,3.19q-2.14,2.67-4,5.53a78.49,78.49,0,0,0-4.67,7.93l-.39.79A78.14,78.14,0,0,0,2,61,78.81,78.81,0,0,0,2,95.91a74.64,74.64,0,0,0,2.52,8.72,76.22,76.22,0,0,0,3.69,8.72l.39.78a77.55,77.55,0,0,0,4.67,7.94q1.9,2.87,4,5.53c.88,1.09,1.78,2.15,2.71,3.19a77.71,77.71,0,0,0,6,6c1,.92,2.08,1.82,3.16,2.69q2.69,2.18,5.56,4.11a78.77,78.77,0,0,0,7.78,4.61l.94.48a79,79,0,0,0,8.72,3.72A80.09,80.09,0,0,0,60.87,155a78.16,78.16,0,0,0,8.72,1.48,80.88,80.88,0,0,0,8.72.5h.16a80.52,80.52,0,0,0,8.56-.46,78,78,0,0,0,26.16-7.62l1.27-.64a78.21,78.21,0,0,0,7.45-4.39c2-1.35,4-2.8,5.89-4.33,1-.78,1.9-1.58,2.83-2.4a82.19,82.19,0,0,0,6.34-6.32q1.22-1.36,2.37-2.79,2.34-2.85,4.39-5.93a76.18,76.18,0,0,0,4.33-7.3c.25-.47.49-.94.73-1.42a78,78,0,0,0,3.69-8.72A76.63,76.63,0,0,0,155,95.91a78.14,78.14,0,0,0,1.47-8.72c.13-1.2.23-2.41.31-3.64.11-1.67.17-3.37.17-5.08s-.06-3.4-.17-5.08M17.27,104.63v-3.06c.39,1,.81,2.06,1.25,3.06Zm95.92-69.75V52.32H95.75V78.47H87V95.91h17.44v8.72H95.75v26.16h8.72v7.71c-.82.35-1.65.69-2.48,1-2,.78-4.12,1.47-6.24,2.05A62.9,62.9,0,0,1,87,143.31a65.35,65.35,0,0,1-8.56.56h-.16a65.47,65.47,0,0,1-17.44-2.4c-2-.56-4-1.22-5.92-2-.94-.36-1.88-.75-2.8-1.16a63.91,63.91,0,0,1-8.72-4.66q-2.16-1.37-4.2-2.9-2.34-1.77-4.52-3.72a65.26,65.26,0,0,1-5-5h5v-8.72h8.72v-8.72h8.72V95.91h8.72V78.47H52.15V69.75H43.43V52.32H18.52a63.16,63.16,0,0,1,4.63-8.72C24,42.18,25,40.79,26,39.45c1.18-1.58,2.43-3.11,3.74-4.57a65.26,65.26,0,0,1,5-5q2.17-2,4.52-3.72c1.36-1,2.76-2,4.2-2.91a66.19,66.19,0,0,1,8.72-4.66c.92-.4,1.85-.79,2.8-1.15,1.93-.75,3.91-1.4,5.92-2a66,66,0,0,1,17.44-2.39h.16a65.35,65.35,0,0,1,8.56.56,64.38,64.38,0,0,1,8.72,1.74A65.28,65.28,0,0,1,102,17.44c.83.32,1.65.66,2.47,1A65.23,65.23,0,0,1,113.19,23q2.32,1.47,4.53,3.12c1.44,1.08,2.84,2.23,4.19,3.43a64.65,64.65,0,0,1,5.31,5.29Z"/><path class="cls-2" d="M162.8,77.91c-.08-1.22-.18-2.43-.31-3.64A78.14,78.14,0,0,0,161,65.55a78.14,78.14,0,0,0-6.21-17.43c-.24-.48-.48-.95-.73-1.42a76.18,76.18,0,0,0-4.33-7.3q-2.06-3.07-4.39-5.93c-.77-.95-1.56-1.88-2.38-2.79a77,77,0,0,0-6.33-6.32c-.93-.82-1.87-1.62-2.83-2.4-1.89-1.54-3.86-3-5.89-4.33a76.16,76.16,0,0,0-7.45-4.39l-1.27-.64a76.86,76.86,0,0,0-8.72-3.67,75.7,75.7,0,0,0-8.72-2.5A78.41,78.41,0,0,0,84.49,4.52h-.16A78.4,78.4,0,0,0,75.61,5,80.55,80.55,0,0,0,66.89,6.5,77.92,77.92,0,0,0,58.17,9a79,79,0,0,0-8.72,3.72c-.31.15-.63.31-.94.48a75.05,75.05,0,0,0-7.78,4.61C38.82,19.13,37,20.51,35.17,22c-1.08.87-2.13,1.76-3.16,2.69a79.52,79.52,0,0,0-6,6c-.93,1-1.83,2.1-2.71,3.19q-2.14,2.67-4.05,5.53a78.49,78.49,0,0,0-4.67,7.93l-.39.79A78.14,78.14,0,0,0,8,65.55a78.81,78.81,0,0,0,0,34.88,75.21,75.21,0,0,0,2.52,8.72,77,77,0,0,0,3.69,8.72l.39.78a77.55,77.55,0,0,0,4.67,7.94q1.91,2.86,4.05,5.53c.88,1.08,1.78,2.15,2.71,3.19a79.51,79.51,0,0,0,6,6c1,.92,2.08,1.82,3.16,2.69,1.79,1.45,3.65,2.82,5.56,4.11a78.77,78.77,0,0,0,7.78,4.61l.94.48a79,79,0,0,0,8.72,3.71,78.54,78.54,0,0,0,17.44,4,80.88,80.88,0,0,0,8.72.5h.16a78.34,78.34,0,0,0,26-4.41,78.73,78.73,0,0,0,8.72-3.67l1.27-.64a80.38,80.38,0,0,0,7.45-4.39c2-1.35,4-2.8,5.89-4.33,1-.78,1.9-1.58,2.83-2.4a82.19,82.19,0,0,0,6.34-6.32q1.22-1.37,2.37-2.79c1.56-1.91,3-3.88,4.39-5.93a77.43,77.43,0,0,0,4.33-7.3c.25-.47.49-.94.73-1.42a78.85,78.85,0,0,0,3.69-8.72,77.23,77.23,0,0,0,2.52-8.72,78.14,78.14,0,0,0,1.47-8.72c.13-1.2.23-2.42.31-3.64.11-1.68.17-3.37.17-5.08s-.06-3.4-.17-5.08M23.29,109.15v-3.06c.39,1,.81,2,1.25,3.06ZM119.21,39.4V56.84H101.77V83H93.05v17.44h17.44v8.72h-8.72v26.16h8.72V143c-.82.35-1.64.69-2.48,1-2,.78-4.12,1.47-6.24,2.05a65.87,65.87,0,0,1-17.28,2.31h-.16a67.67,67.67,0,0,1-8.72-.6,66.06,66.06,0,0,1-8.72-1.8c-2-.56-4-1.22-5.92-2-.94-.37-1.88-.75-2.8-1.16a63.91,63.91,0,0,1-8.72-4.66q-2.16-1.36-4.2-2.9-2.34-1.77-4.52-3.72a67.12,67.12,0,0,1-5-5h5v-8.72h8.72v-8.72h8.72v-8.72h8.72V83H58.17V74.27H49.45V56.84H24.54a63.16,63.16,0,0,1,4.63-8.72Q30.5,46,32,44c1.18-1.58,2.43-3.11,3.74-4.57a63.5,63.5,0,0,1,5-5q2.18-2,4.52-3.72,2-1.55,4.2-2.91a66.19,66.19,0,0,1,8.72-4.66C59.09,22.7,60,22.32,61,22c1.93-.75,3.91-1.41,5.92-2a64.47,64.47,0,0,1,8.72-1.79,65.93,65.93,0,0,1,8.72-.6h.16a67.14,67.14,0,0,1,8.56.55,66,66,0,0,1,8.72,1.75A65.28,65.28,0,0,1,108,22c.83.32,1.65.65,2.47,1a65.23,65.23,0,0,1,8.72,4.59q2.33,1.47,4.53,3.12c1.44,1.08,2.84,2.23,4.19,3.42a64.77,64.77,0,0,1,5.31,5.3Z"/></g></g></svg>